Coordinates
version=1
nRows=9
nColumns=36
inDegrees=yes

Units are S.I. units (second, meters, Newtons, ...)
If the header above contains a line with 'inDegrees', this indicates whether rotational values are in degrees (yes) or radians (no).

endheader
time	pelvis_tilt	pelvis_list	pelvis_rotation	pelvis_tx	pelvis_ty	pelvis_tz	hip_flexion_r	hip_adduction_r	hip_rotation_r	knee_angle_r	knee_angle_r_beta	ankle_angle_r	subtalar_angle_r	mtp_angle_r	hip_flexion_l	hip_adduction_l	hip_rotation_l	knee_angle_l	knee_angle_l_beta	ankle_angle_l	subtalar_angle_l	mtp_angle_l	lumbar_extension	lumbar_bending	lumbar_rotation	arm_flex_r	arm_add_r	arm_rot_r	elbow_flex_r	pro_sup_r	arm_flex_l	arm_add_l	arm_rot_l	elbow_flex_l	pro_sup_l
      0.00000000	     12.98082165	     -0.99505072	      0.95864235	     -0.58375635	      0.57412826	     -0.62060173	     78.12374301	     -9.85514163	      3.72584987	     97.92436937	      1.70910266	     13.80400426	      2.04260029	     -3.73747288	     79.68819294	     -7.70014470	      4.43377044	     97.85610396	      1.70791121	      9.33323981	     -4.03406808	     -3.73747288	    -19.34221172	      1.99220429	      1.05628960	     -7.42626055	     -4.89695139	    -10.73058534	    119.04616293	    101.39659293	     -4.65515198	     -2.89536188	     -9.87558888	    112.74887358	     98.01355815
      0.01000000	     13.00697088	     -1.00201337	      0.97835917	     -0.58373710	      0.57419547	     -0.62059831	     78.13779519	     -9.89299265	      3.70806440	     97.97219140	      1.70993732	     13.74256489	      2.10064084	     -4.41578595	     79.66521360	     -7.68790179	      4.44582020	     97.85809392	      1.70794594	      9.29727520	     -4.03834542	     -4.41578595	    -19.36355431	      1.98049820	      1.02583345	     -7.41256003	     -4.87270714	    -10.76624300	    118.97617617	    101.44188855	     -4.68934541	     -2.87920680	     -9.89667733	    112.87111740	     97.53535825
      0.02000000	     13.00480108	     -0.95079887	      0.96492128	     -0.58373284	      0.57417975	     -0.62056594	     78.16390864	     -9.90366000	      3.77177998	     97.98758353	      1.71020596	     13.77735666	      2.24298505	     -5.14271646	     79.65116178	     -7.68637888	      4.38195585	     97.85463978	      1.70788565	      9.31524922	     -4.06466353	     -5.14271646	    -19.35655264	      1.90861926	      1.04583272	     -7.44212676	     -4.81710258	    -10.80126782	    118.98056994	    101.39593596	     -4.68880234	     -2.91003935	     -9.85404369	    112.88325491	     97.52920685
      0.03000000	     12.99221027	     -0.97838659	      0.95928078	     -0.58376605	      0.57417477	     -0.62056559	     78.12657126	     -9.87695601	      3.72793740	     97.93559140	      1.70929852	     13.83696814	      2.09001891	     -5.68391898	     79.67423926	     -7.69381396	      4.41330650	     97.85530189	      1.70789721	      9.30674550	     -4.06298869	     -5.68391898	    -19.34617161	      1.94008610	      1.02567823	     -7.41247840	     -4.83861523	    -10.75184754	    118.95311244	    101.50924576	     -4.71226736	     -2.88882704	     -9.92280359	    112.87657986	     97.55790356
      0.04000000	     12.99478889	     -0.97283285	      0.96225543	     -0.58378690	      0.57421241	     -0.62060981	     78.09904365	     -9.89345494	      3.74214589	     97.92751912	      1.70915764	     14.14343744	      2.47148047	     -5.92902558	     79.64982115	     -7.67117173	      4.42046380	     97.82365394	      1.70734485	      9.29995918	     -4.07714053	     -5.92902558	    -19.32797944	      1.92432850	      1.05221907	     -7.43812695	     -4.84943520	    -10.70464407	    119.00159423	    100.44992266	     -4.69645649	     -2.87917518	     -9.85531644	    112.96458163	     96.48497914
      0.05000000	     12.98385554	     -0.99421651	      0.96101571	     -0.58375195	      0.57424912	     -0.62059338	     78.12121342	     -9.88705594	      3.70155674	     97.91656351	      1.70896643	     13.81935781	      2.09068322	     -6.28826661	     79.67893410	     -7.69515485	      4.43502218	     97.84570975	      1.70772979	      9.30707668	     -4.04401791	     -6.28826661	    -19.26089851	      1.92168680	      1.04945570	     -7.43982038	     -4.83110289	    -10.75657802	    118.81259543	    101.72599681	     -4.71249794	     -2.87335044	     -9.86510797	    112.83796563	     97.05756709
      0.06000000	     12.98201568	     -0.99191615	      0.95471775	     -0.58373119	      0.57430341	     -0.62062812	     78.13361952	     -9.89705276	      3.71447307	     97.92305512	      1.70907973	     13.83315211	      2.18754268	     -6.40011843	     79.66609282	     -7.69211279	      4.42687657	     97.84004173	      1.70763087	      9.31092859	     -4.02488440	     -6.40011843	    -19.23033223	      1.89377150	      1.06947521	     -7.46183550	     -4.81598595	    -10.77253141	    118.76297786	    101.67114314	     -4.71677495	     -2.85932974	     -9.84215411	    112.84737795	     96.73721080
      0.07000000	     12.96995385	     -0.99218849	      0.94675675	     -0.58374644	      0.57425671	     -0.62057550	     78.14283386	     -9.87369194	      3.70001781	     97.91256023	      1.70889656	     13.70625341	      1.93533977	     -6.48569529	     79.68457482	     -7.71038606	      4.42058060	     97.84108894	      1.70764915	      9.33977109	     -4.02187539	     -6.48569529	    -19.20799425	      1.87844904	      1.07258750	     -7.47015968	     -4.84803757	    -10.63774553	    118.90615069	    100.19317315	     -4.72045366	     -2.87464081	     -9.80586661	    112.99935962	     95.60925903
      0.08000000	     12.99098560	     -0.92381858	      0.93829643	     -0.58375350	      0.57426599	     -0.62060145	     78.12121243	     -9.89588279	      3.80742989	     97.93343492	      1.70926089	     14.09441177	      2.51043793	     -6.59986848	     79.63436605	     -7.68455008	      4.34748026	     97.83271277	      1.70750295	      9.30247992	     -4.08777321	     -6.59986848	    -19.21912974	      1.78818776	      1.13515313	     -7.53509144	     -4.83347415	    -10.75696884	    118.84719653	    100.72076886	     -4.64173328	     -2.86017702	     -9.81776122	    112.85981816	     96.45781091
